<?xml version="1.0" standalone="no"?>
<!DOCTYPE svg PUBLIC "-//W3C//DTD SVG 1.0//EN" "http://www.w3.org/TR/2001/REC-SVG-20010904/DTD/svg10.dtd">
<svg xmlns="http://www.w3.org/2000/svg" xmlns:xlink="http://www.w3.org/1999/xlink" id="body_1" width="25" height="25">

<g transform="matrix(0.2777778 0 0 0.2777778 0 0)">
	<g transform="matrix(0.9944751 0 0 0.9944751 0 0)">
	</g>
    <path transform="matrix(0.9944751 0 0 0.9944751 0 0)"  d="M72.635 22.976L37.044 60.734L20.49 45.534C 19.169 44.32 17.112 44.407 15.898 45.729C 14.684 47.051 14.771 49.107 16.093 50.321L16.093 50.321L35.01 67.691C 35.634 68.264 36.422 68.547 37.207 68.547C 38.072 68.547 38.934 68.204 39.573 67.526L39.573 67.526L77.364 27.433C 78.594 26.126 78.534 24.07 77.228 22.838C 75.923 21.608 73.866 21.672 72.63499 22.976L72.63499 22.976L72.635 22.976zM70.917 0L19.583 0C 8.785 0 0 8.785 0 19.583L0 19.583L0 70.917C 0 81.715 8.785 90.5 19.583 90.5L19.583 90.5L70.917 90.5C 81.715 90.5 90.5 81.715 90.5 70.917L90.5 70.917L90.5 19.583C 90.5 8.785 81.715 0 70.917 0zM84 70.917C 84 78.131 78.131 84 70.917 84L70.917 84L19.583 84C 12.369 84 6.5 78.131 6.5 70.917L6.5 70.917L6.5 19.583C 6.5 12.369 12.369 6.5 19.583 6.5L19.583 6.5L70.917 6.5C 78.131 6.5 84 12.369 84 19.583z" stroke="none" fill="#912338" fill-rule="nonzero" />
</g>
</svg>