<?xml version="1.0" encoding="UTF-8"?>
<svg width="33px" height="36px" viewBox="0 0 33 36" version="1.1" xmlns="http://www.w3.org/2000/svg" xmlns:xlink="http://www.w3.org/1999/xlink">
    <!-- Generator: Sketch 49 (51002) - http://www.bohemiancoding.com/sketch -->
    <title>Timer Small</title>
    <desc>Created with Sketch.</desc>
    <defs>
        <ellipse id="path-1" cx="16.5" cy="19.6363636" rx="16.5" ry="16.3636364"></ellipse>
    </defs>
    <g id="Page-1" stroke="none" stroke-width="1" fill="none" fill-rule="evenodd">
        <g id="Icon-Ideas" transform="translate(-274.000000, -858.000000)">
            <g id="Timer-Small" transform="translate(274.000000, 858.000000)">
                <g id="Timer">
                    <use fill="#FFFFFF" fill-rule="evenodd" xlink:href="#path-1"></use>
                    <ellipse stroke="#4A4A4A" stroke-width="2" cx="16.5" cy="19.6363636" rx="15.5" ry="15.3636364"></ellipse>
                </g>
                <path d="M19.9064947,12.2819606 L20.9729529,21.8074171 C21.0640336,22.6209375 20.4783805,23.3542616 19.6648601,23.4453423 C19.6101019,23.451473 19.5550443,23.4545455 19.4999439,23.4545455 L19.4999439,23.4545455 C18.6813408,23.4545455 18.0177318,22.7909365 18.0177318,21.9723333 C18.0177318,21.9172329 18.0208043,21.8621754 18.026935,21.8074171 L19.0933931,12.2819606 C19.1185314,12.0574288 19.320929,11.8957884 19.5454608,11.9209267 C19.7353531,11.9421868 19.8852346,12.0920683 19.9064947,12.2819606 Z" id="Needle" fill="#4A4A4A" transform="translate(19.500000, 17.727273) rotate(-300.000000) translate(-19.500000, -17.727273) "></path>
                <g id="Right-Button" transform="translate(27.943714, 5.229953) rotate(38.000000) translate(-27.943714, -5.229953) translate(25.943714, 2.729953)" fill="#4A4A4A">
                    <rect id="Stem" x="1.2375" y="2.45454545" width="1.2375" height="2.04545455"></rect>
                    <path d="M0.409090909,0 L3.30340909,0 C3.52934376,-2.42173824e-16 3.7125,0.183156239 3.7125,0.409090909 L3.7125,2.45454545 L0,2.45454545 L0,0.409090909 C-2.76690171e-17,0.183156239 0.183156239,1.52525828e-16 0.409090909,1.11022302e-16 Z" id="Head"></path>
                </g>
                <g id="Left-Button" transform="translate(5.334527, 4.951856) rotate(-38.000000) translate(-5.334527, -4.951856) translate(3.478277, 2.701856)" fill="#4A4A4A">
                    <rect id="Stem" x="1.2375" y="2.45454545" width="1.2375" height="2.04545455"></rect>
                    <path d="M0.409090909,0 L3.30340909,0 C3.52934376,-4.15035256e-17 3.7125,0.183156239 3.7125,0.409090909 L3.7125,2.45454545 L0,2.45454545 L0,0.409090909 C-2.76690171e-17,0.183156239 0.183156239,1.52525828e-16 0.409090909,1.11022302e-16 Z" id="Head"></path>
                </g>
                <g id="Middle-Button" transform="translate(13.612500, 0.000000)" fill="#4A4A4A">
                    <rect id="Stem" x="1.2375" y="2.45454545" width="3.3" height="1.22727273"></rect>
                    <rect id="Head" x="0" y="0" width="5.775" height="2.45454545" rx="0.818181818"></rect>
                </g>
                <path d="M16,4 L17,4 L17,7.5 C17,7.77614237 16.7761424,8 16.5,8 C16.2238576,8 16,7.77614237 16,7.5 L16,4 Z M23.8169873,5.82660624 L24.6830127,6.32660624 L22.9330127,9.35769515 C22.7949415,9.59684147 22.4891463,9.67877904 22.25,9.54070786 C22.0108537,9.40263667 21.9289161,9.09684147 22.0669873,8.85769515 L23.8169873,5.82660624 Z M29.6733938,11.3169873 L30.1733938,12.1830127 L27.1423048,13.9330127 C26.9031585,14.0710839 26.5973633,13.9891463 26.4592921,13.75 C26.321221,13.5108537 26.4031585,13.2050585 26.6423048,13.0669873 L29.6733938,11.3169873 Z M32,19 L32,20 L28.5,20 C28.2238576,20 28,19.7761424 28,19.5 C28,19.2238576 28.2238576,19 28.5,19 L32,19 Z M30.1733938,26.8169873 L29.6733938,27.6830127 L26.6423048,25.9330127 C26.4031585,25.7949415 26.321221,25.4891463 26.4592921,25.25 C26.5973633,25.0108537 26.9031585,24.9289161 27.1423048,25.0669873 L30.1733938,26.8169873 Z M24.6830127,32.6733938 L23.8169873,33.1733938 L22.0669873,30.1423048 C21.9289161,29.9031585 22.0108537,29.5973633 22.25,29.4592921 C22.4891463,29.321221 22.7949415,29.4031585 22.9330127,29.6423048 L24.6830127,32.6733938 Z M17,35 L16,35 L16,31.5 C16,31.2238576 16.2238576,31 16.5,31 C16.7761424,31 17,31.2238576 17,31.5 L17,35 Z M9.1830127,33.1733938 L8.3169873,32.6733938 L10.0669873,29.6423048 C10.2050585,29.4031585 10.5108537,29.321221 10.75,29.4592921 C10.9891463,29.5973633 11.0710839,29.9031585 10.9330127,30.1423048 L9.1830127,33.1733938 Z M3.32660624,27.6830127 L2.82660624,26.8169873 L5.85769515,25.0669873 C6.09684147,24.9289161 6.40263667,25.0108537 6.54070786,25.25 C6.67877904,25.4891463 6.59684147,25.7949415 6.35769515,25.9330127 L3.32660624,27.6830127 Z M1,20 L1,19 L4.5,19 C4.77614237,19 5,19.2238576 5,19.5 C5,19.7761424 4.77614237,20 4.5,20 L1,20 Z M2.82660624,12.1830127 L3.32660624,11.3169873 L6.35769515,13.0669873 C6.59684147,13.2050585 6.67877904,13.5108537 6.54070786,13.75 C6.40263667,13.9891463 6.09684147,14.0710839 5.85769515,13.9330127 L2.82660624,12.1830127 Z M8.3169873,6.32660624 L9.1830127,5.82660624 L10.9330127,8.85769515 C11.0710839,9.09684147 10.9891463,9.40263667 10.75,9.54070786 C10.5108537,9.67877904 10.2050585,9.59684147 10.0669873,9.35769515 L8.3169873,6.32660624 Z" id="Rectangle-10" fill="#4A4A4A"></path>
            </g>
        </g>
    </g>
</svg>