<svg xmlns="http://www.w3.org/2000/svg" width="36" height="36" viewBox="0 0 36 36">
  <g fill="none" fill-rule="evenodd">
    <g transform="translate(4 5)">
      <polygon points="0 0 29 0 29 25.422 0 25.422"/>
      <path fill="#4A4A4A" fill-rule="nonzero" d="M22.2279265,14.5969778 C22.2712916,14.2641778 22.3038155,13.9313778 22.3038155,13.5777778 C22.3038155,13.2241778 22.2712916,12.8913778 22.2279265,12.5585778 L24.5154384,10.8425778 C24.7214228,10.6865778 24.7756293,10.4057778 24.6455338,10.1769778 L22.4772761,6.57857778 C22.3471807,6.34977778 22.0544659,6.26657778 21.8159575,6.34977778 L19.1164767,7.38977778 C18.5527297,6.97377778 17.9456175,6.63057778 17.2842989,6.37057778 L16.87233,3.61457778 C16.8398061,3.36497778 16.612139,3.17777778 16.3411068,3.17777778 L12.0045914,3.17777778 C11.7335592,3.17777778 11.5058921,3.36497778 11.4733683,3.61457778 L11.0613993,6.37057778 C10.4000807,6.63057778 9.79296854,6.98417778 9.22922154,7.38977778 L6.5297407,6.34977778 C6.28039106,6.25617778 5.99851756,6.34977778 5.8684221,6.57857778 L3.70016439,10.1769778 C3.55922764,10.4057778 3.62427537,10.6865778 3.83025985,10.8425778 L6.11777173,12.5585778 C6.07440658,12.8913778 6.04188271,13.2345778 6.04188271,13.5777778 C6.04188271,13.9209778 6.07440658,14.2641778 6.11777173,14.5969778 L3.83025985,16.3129778 C3.62427537,16.4689778 3.57006893,16.7497778 3.70016439,16.9785778 L5.8684221,20.5769778 C5.99851756,20.8057778 6.29123235,20.8889778 6.5297407,20.8057778 L9.22922154,19.7657778 C9.79296854,20.1817778 10.4000807,20.5249778 11.0613993,20.7849778 L11.4733683,23.5409778 C11.5058921,23.7905778 11.7335592,23.9777778 12.0045914,23.9777778 L16.3411068,23.9777778 C16.612139,23.9777778 16.8398061,23.7905778 16.87233,23.5409778 L17.2842989,20.7849778 C17.9456175,20.5249778 18.5527297,20.1713778 19.1164767,19.7657778 L21.8159575,20.8057778 C22.0653072,20.8993778 22.3471807,20.8057778 22.4772761,20.5769778 L24.6455338,16.9785778 C24.7756293,16.7497778 24.7214228,16.4689778 24.5154384,16.3129778 L22.2279265,14.5969778 L22.2279265,14.5969778 Z M14.1728491,17.2177778 C12.0804804,17.2177778 10.3783981,15.5849778 10.3783981,13.5777778 C10.3783981,11.5705778 12.0804804,9.93777778 14.1728491,9.93777778 C16.2652178,9.93777778 17.9673001,11.5705778 17.9673001,13.5777778 C17.9673001,15.5849778 16.2652178,17.2177778 14.1728491,17.2177778 Z"/>
    </g>
    <circle cx="18" cy="18" r="17.5" stroke="#4A4A4A"/>
  </g>
</svg>
